<svg width="28" height="28" viewBox="0 0 28 28" fill="none" xmlns="http://www.w3.org/2000/svg">
<path d="M23.3336 12.8318H25.6669C25.6669 6.84684 21.1484 2.33301 15.1553 2.33301V4.66634C19.8943 4.66634 23.3336 8.09984 23.3336 12.8318Z" fill="#0A5C36"/>
<path d="M15.167 9.33296C17.6205 9.33296 18.667 10.3795 18.667 12.833H21.0003C21.0003 9.07046 18.9295 6.99963 15.167 6.99963V9.33296ZM19.1593 15.6831C18.9352 15.4794 18.6406 15.3707 18.3378 15.3801C18.035 15.3894 17.7477 15.5161 17.5365 15.7333L14.7447 18.6045C14.0727 18.4761 12.7217 18.055 11.331 16.6678C9.94033 15.276 9.51916 13.9215 9.39433 13.2541L12.2632 10.4611C12.4806 10.2501 12.6075 9.96275 12.6169 9.65987C12.6262 9.35698 12.5174 9.06234 12.3133 8.83829L8.0025 4.09813C7.79838 3.87338 7.51469 3.73705 7.21167 3.7181C6.90866 3.69915 6.61019 3.79906 6.37966 3.99663L3.848 6.16779C3.64629 6.37023 3.5259 6.63965 3.50966 6.92496C3.49216 7.21663 3.1585 14.1256 8.51583 19.4853C13.1895 24.1578 19.0438 24.4996 20.6562 24.4996C20.8918 24.4996 21.0365 24.4926 21.075 24.4903C21.3603 24.4743 21.6295 24.3534 21.831 24.1508L24.001 21.618C24.1987 21.3876 24.2988 21.0892 24.2801 20.7862C24.2614 20.4832 24.1252 20.1994 23.9007 19.9951L19.1593 15.6831Z" fill="#0A5C36"/>
</svg>
